<?xml version="1.0" encoding="UTF-8" standalone="no"?>
<svg width="184.415mm" height="103.452mm"
 xmlns="http://www.w3.org/2000/svg" xmlns:xlink="http://www.w3.org/1999/xlink"  version="1.2" baseProfile="tiny">
<title>Qt Svg Document</title>
<desc>Generated with Qt</desc>
<defs>
</defs>
<g fill="none" stroke="black" stroke-width="1" fill-rule="evenodd" stroke-linecap="square" stroke-linejoin="bevel" >

<g fill="#ffffff" fill-opacity="1" stroke="none" transform="matrix(1,0,0,1,0,0)"
font-family="Helvetica" font-size="16" font-weight="400" font-style="normal" 
>
<path vector-effect="non-scaling-stroke" fill-rule="evenodd" d="M0,0 L697,0 L697,391 L0,391 L0,0"/>
</g>

<g fill="none" stroke="#c0c0c0" stroke-opacity="1" stroke-width="1" stroke-linecap="square" stroke-linejoin="bevel" transform="matrix(1,0,0,1,0,0)"
font-family="Helvetica" font-size="16" font-weight="400" font-style="normal" 
>
<polyline fill="none" vector-effect="non-scaling-stroke" points="84,53 601,53 " />
<polyline fill="none" vector-effect="non-scaling-stroke" points="84,150 601,150 " />
<polyline fill="none" vector-effect="non-scaling-stroke" points="84,247 601,247 " />
<polyline fill="none" vector-effect="non-scaling-stroke" points="539,15 539,312 " />
<polyline fill="none" vector-effect="non-scaling-stroke" points="434,15 434,312 " />
<polyline fill="none" vector-effect="non-scaling-stroke" points="418,15 418,312 " />
<polyline fill="none" vector-effect="non-scaling-stroke" points="400,15 400,312 " />
<polyline fill="none" vector-effect="non-scaling-stroke" points="380,15 380,312 " />
<polyline fill="none" vector-effect="non-scaling-stroke" points="356,15 356,312 " />
<polyline fill="none" vector-effect="non-scaling-stroke" points="329,15 329,312 " />
<polyline fill="none" vector-effect="non-scaling-stroke" points="295,15 295,312 " />
<polyline fill="none" vector-effect="non-scaling-stroke" points="251,15 251,312 " />
<polyline fill="none" vector-effect="non-scaling-stroke" points="189,15 189,312 " />
</g>

<g fill="none" stroke="#000000" stroke-opacity="1" stroke-width="1" stroke-linecap="square" stroke-linejoin="bevel" transform="matrix(1,0,0,1,0,0)"
font-family="Helvetica" font-size="16" font-weight="400" font-style="normal" 
>
<polyline fill="none" vector-effect="non-scaling-stroke" points="84,307 84,317 " />
<polyline fill="none" vector-effect="non-scaling-stroke" points="434,307 434,317 " />
<polyline fill="none" vector-effect="non-scaling-stroke" points="601,307 601,317 " />
<polyline fill="none" vector-effect="non-scaling-stroke" points="79,247 89,247 " />
<polyline fill="none" vector-effect="non-scaling-stroke" points="79,150 89,150 " />
<polyline fill="none" vector-effect="non-scaling-stroke" points="79,53 89,53 " />
<polyline fill="none" vector-effect="non-scaling-stroke" points="84,15 601,15 " />
<polyline fill="none" vector-effect="non-scaling-stroke" points="601,15 601,312 " />
<polyline fill="none" vector-effect="non-scaling-stroke" points="84,312 601,312 " />
<polyline fill="none" vector-effect="non-scaling-stroke" points="84,15 84,312 " />
</g>

<g fill="none" stroke="#ff0000" stroke-opacity="1" stroke-width="1" stroke-linecap="square" stroke-linejoin="bevel" transform="matrix(1,0,0,1,0,0)"
font-family="Helvetica" font-size="16" font-weight="400" font-style="normal" 
>
</g>

<g fill="#ff0000" fill-opacity="1" stroke="none" transform="matrix(1,0,0,1,0,0)"
font-family="Helvetica" font-size="16" font-weight="400" font-style="normal" 
>
<path vector-effect="non-scaling-stroke" fill-rule="evenodd" d="M83.5,71.5 L84.5,71.5 L84.5,72.5 L83.5,72.5 L83.5,71.5"/>
</g>

<g fill="none" stroke="#ff0000" stroke-opacity="1" stroke-width="1" stroke-linecap="square" stroke-linejoin="bevel" transform="matrix(1,0,0,1,0,0)"
font-family="Helvetica" font-size="16" font-weight="400" font-style="normal" 
>
<polyline fill="none" vector-effect="non-scaling-stroke" points="84,72 89,69 " />
<polyline fill="none" vector-effect="non-scaling-stroke" points="89,69 94,66 " />
<polyline fill="none" vector-effect="non-scaling-stroke" points="94,66 100,64 " />
<polyline fill="none" vector-effect="non-scaling-stroke" points="100,64 105,61 " />
<polyline fill="none" vector-effect="non-scaling-stroke" points="105,61 110,59 " />
<polyline fill="none" vector-effect="non-scaling-stroke" points="110,59 115,56 " />
<polyline fill="none" vector-effect="non-scaling-stroke" points="115,56 121,54 " />
<polyline fill="none" vector-effect="non-scaling-stroke" points="121,54 126,52 " />
<polyline fill="none" vector-effect="non-scaling-stroke" points="126,52 131,50 " />
<polyline fill="none" vector-effect="non-scaling-stroke" points="131,50 136,48 " />
<polyline fill="none" vector-effect="non-scaling-stroke" points="136,48 141,46 " />
<polyline fill="none" vector-effect="non-scaling-stroke" points="141,46 147,45 " />
<polyline fill="none" vector-effect="non-scaling-stroke" points="147,45 152,43 " />
<polyline fill="none" vector-effect="non-scaling-stroke" points="152,43 157,42 " />
<polyline fill="none" vector-effect="non-scaling-stroke" points="157,42 162,41 " />
<polyline fill="none" vector-effect="non-scaling-stroke" points="162,41 168,41 " />
<polyline fill="none" vector-effect="non-scaling-stroke" points="168,41 173,40 " />
<polyline fill="none" vector-effect="non-scaling-stroke" points="173,40 178,40 " />
<polyline fill="none" vector-effect="non-scaling-stroke" points="178,40 183,40 " />
<polyline fill="none" vector-effect="non-scaling-stroke" points="183,40 188,40 " />
<polyline fill="none" vector-effect="non-scaling-stroke" points="188,40 194,40 " />
<polyline fill="none" vector-effect="non-scaling-stroke" points="194,40 199,41 " />
<polyline fill="none" vector-effect="non-scaling-stroke" points="199,41 204,41 " />
<polyline fill="none" vector-effect="non-scaling-stroke" points="204,41 209,42 " />
<polyline fill="none" vector-effect="non-scaling-stroke" points="209,42 215,43 " />
<polyline fill="none" vector-effect="non-scaling-stroke" points="215,43 220,44 " />
<polyline fill="none" vector-effect="non-scaling-stroke" points="220,44 225,45 " />
<polyline fill="none" vector-effect="non-scaling-stroke" points="225,45 230,46 " />
<polyline fill="none" vector-effect="non-scaling-stroke" points="230,46 235,47 " />
<polyline fill="none" vector-effect="non-scaling-stroke" points="235,47 241,48 " />
<polyline fill="none" vector-effect="non-scaling-stroke" points="241,48 246,49 " />
<polyline fill="none" vector-effect="non-scaling-stroke" points="246,49 251,51 " />
<polyline fill="none" vector-effect="non-scaling-stroke" points="251,51 256,52 " />
<polyline fill="none" vector-effect="non-scaling-stroke" points="256,52 262,53 " />
<polyline fill="none" vector-effect="non-scaling-stroke" points="262,53 267,54 " />
<polyline fill="none" vector-effect="non-scaling-stroke" points="267,54 272,56 " />
<polyline fill="none" vector-effect="non-scaling-stroke" points="272,56 277,57 " />
<polyline fill="none" vector-effect="non-scaling-stroke" points="277,57 282,59 " />
<polyline fill="none" vector-effect="non-scaling-stroke" points="282,59 288,60 " />
<polyline fill="none" vector-effect="non-scaling-stroke" points="288,60 293,61 " />
<polyline fill="none" vector-effect="non-scaling-stroke" points="293,61 298,63 " />
<polyline fill="none" vector-effect="non-scaling-stroke" points="298,63 303,64 " />
<polyline fill="none" vector-effect="non-scaling-stroke" points="303,64 309,66 " />
<polyline fill="none" vector-effect="non-scaling-stroke" points="309,66 314,67 " />
<polyline fill="none" vector-effect="non-scaling-stroke" points="314,67 319,69 " />
<polyline fill="none" vector-effect="non-scaling-stroke" points="319,69 324,70 " />
<polyline fill="none" vector-effect="non-scaling-stroke" points="324,70 329,72 " />
<polyline fill="none" vector-effect="non-scaling-stroke" points="329,72 335,73 " />
<polyline fill="none" vector-effect="non-scaling-stroke" points="335,73 340,74 " />
<polyline fill="none" vector-effect="non-scaling-stroke" points="340,74 345,76 " />
<polyline fill="none" vector-effect="non-scaling-stroke" points="345,76 350,77 " />
<polyline fill="none" vector-effect="non-scaling-stroke" points="350,77 356,79 " />
<polyline fill="none" vector-effect="non-scaling-stroke" points="356,79 361,80 " />
<polyline fill="none" vector-effect="non-scaling-stroke" points="361,80 366,82 " />
<polyline fill="none" vector-effect="non-scaling-stroke" points="366,82 371,83 " />
<polyline fill="none" vector-effect="non-scaling-stroke" points="371,83 376,85 " />
<polyline fill="none" vector-effect="non-scaling-stroke" points="376,85 382,86 " />
<polyline fill="none" vector-effect="non-scaling-stroke" points="382,86 387,88 " />
<polyline fill="none" vector-effect="non-scaling-stroke" points="387,88 392,89 " />
<polyline fill="none" vector-effect="non-scaling-stroke" points="392,89 397,91 " />
<polyline fill="none" vector-effect="non-scaling-stroke" points="397,91 403,92 " />
<polyline fill="none" vector-effect="non-scaling-stroke" points="403,92 408,94 " />
<polyline fill="none" vector-effect="non-scaling-stroke" points="408,94 413,95 " />
<polyline fill="none" vector-effect="non-scaling-stroke" points="413,95 418,97 " />
<polyline fill="none" vector-effect="non-scaling-stroke" points="418,97 423,98 " />
<polyline fill="none" vector-effect="non-scaling-stroke" points="423,98 429,100 " />
<polyline fill="none" vector-effect="non-scaling-stroke" points="429,100 434,102 " />
<polyline fill="none" vector-effect="non-scaling-stroke" points="434,102 439,103 " />
<polyline fill="none" vector-effect="non-scaling-stroke" points="439,103 444,105 " />
<polyline fill="none" vector-effect="non-scaling-stroke" points="444,105 450,106 " />
<polyline fill="none" vector-effect="non-scaling-stroke" points="450,106 455,108 " />
<polyline fill="none" vector-effect="non-scaling-stroke" points="455,108 460,110 " />
<polyline fill="none" vector-effect="non-scaling-stroke" points="460,110 465,111 " />
<polyline fill="none" vector-effect="non-scaling-stroke" points="465,111 470,113 " />
<polyline fill="none" vector-effect="non-scaling-stroke" points="470,113 476,115 " />
<polyline fill="none" vector-effect="non-scaling-stroke" points="476,115 481,117 " />
<polyline fill="none" vector-effect="non-scaling-stroke" points="481,117 486,118 " />
<polyline fill="none" vector-effect="non-scaling-stroke" points="486,118 491,120 " />
<polyline fill="none" vector-effect="non-scaling-stroke" points="491,120 497,122 " />
<polyline fill="none" vector-effect="non-scaling-stroke" points="497,122 502,124 " />
<polyline fill="none" vector-effect="non-scaling-stroke" points="502,124 507,126 " />
<polyline fill="none" vector-effect="non-scaling-stroke" points="507,126 512,129 " />
<polyline fill="none" vector-effect="non-scaling-stroke" points="512,129 517,131 " />
<polyline fill="none" vector-effect="non-scaling-stroke" points="517,131 523,134 " />
<polyline fill="none" vector-effect="non-scaling-stroke" points="523,134 528,136 " />
<polyline fill="none" vector-effect="non-scaling-stroke" points="528,136 533,139 " />
<polyline fill="none" vector-effect="non-scaling-stroke" points="533,139 538,143 " />
<polyline fill="none" vector-effect="non-scaling-stroke" points="538,143 544,147 " />
<polyline fill="none" vector-effect="non-scaling-stroke" points="544,147 549,151 " />
<polyline fill="none" vector-effect="non-scaling-stroke" points="549,151 554,156 " />
<polyline fill="none" vector-effect="non-scaling-stroke" points="554,156 559,163 " />
<polyline fill="none" vector-effect="non-scaling-stroke" points="559,163 564,171 " />
<polyline fill="none" vector-effect="non-scaling-stroke" points="564,171 570,181 " />
<polyline fill="none" vector-effect="non-scaling-stroke" points="570,181 575,194 " />
<polyline fill="none" vector-effect="non-scaling-stroke" points="575,194 580,214 " />
<polyline fill="none" vector-effect="non-scaling-stroke" points="580,214 585,253 " />
<polyline fill="none" vector-effect="non-scaling-stroke" points="585,253 591,287 " />
<polyline fill="none" vector-effect="non-scaling-stroke" points="591,287 596,229 " />
<polyline fill="none" vector-effect="non-scaling-stroke" points="596,229 601,207 " />
</g>

<g fill="#ff0000" fill-opacity="1" stroke="none" transform="matrix(1,0,0,1,0,0)"
font-family="Helvetica" font-size="16" font-weight="400" font-style="normal" 
>
<path vector-effect="non-scaling-stroke" fill-rule="evenodd" d="M83.5,71.5 L84.5,71.5 L84.5,72.5 L83.5,72.5 L83.5,71.5"/>
</g>

<g fill="none" stroke="#ff0000" stroke-opacity="1" stroke-width="1" stroke-linecap="square" stroke-linejoin="bevel" transform="matrix(1,0,0,1,0,0)"
font-family="Helvetica" font-size="16" font-weight="400" font-style="normal" 
>
<polyline fill="none" vector-effect="non-scaling-stroke" points="84,72 89,69 " />
<polyline fill="none" vector-effect="non-scaling-stroke" points="89,69 94,66 " />
<polyline fill="none" vector-effect="non-scaling-stroke" points="94,66 100,64 " />
<polyline fill="none" vector-effect="non-scaling-stroke" points="100,64 105,61 " />
<polyline fill="none" vector-effect="non-scaling-stroke" points="105,61 110,59 " />
<polyline fill="none" vector-effect="non-scaling-stroke" points="110,59 115,56 " />
<polyline fill="none" vector-effect="non-scaling-stroke" points="115,56 121,54 " />
<polyline fill="none" vector-effect="non-scaling-stroke" points="121,54 126,52 " />
<polyline fill="none" vector-effect="non-scaling-stroke" points="126,52 131,50 " />
<polyline fill="none" vector-effect="non-scaling-stroke" points="131,50 136,48 " />
<polyline fill="none" vector-effect="non-scaling-stroke" points="136,48 141,46 " />
<polyline fill="none" vector-effect="non-scaling-stroke" points="141,46 147,45 " />
<polyline fill="none" vector-effect="non-scaling-stroke" points="147,45 152,43 " />
<polyline fill="none" vector-effect="non-scaling-stroke" points="152,43 157,42 " />
<polyline fill="none" vector-effect="non-scaling-stroke" points="157,42 162,41 " />
<polyline fill="none" vector-effect="non-scaling-stroke" points="162,41 168,41 " />
<polyline fill="none" vector-effect="non-scaling-stroke" points="168,41 173,40 " />
<polyline fill="none" vector-effect="non-scaling-stroke" points="173,40 178,40 " />
<polyline fill="none" vector-effect="non-scaling-stroke" points="178,40 183,40 " />
<polyline fill="none" vector-effect="non-scaling-stroke" points="183,40 188,40 " />
<polyline fill="none" vector-effect="non-scaling-stroke" points="188,40 194,40 " />
<polyline fill="none" vector-effect="non-scaling-stroke" points="194,40 199,41 " />
<polyline fill="none" vector-effect="non-scaling-stroke" points="199,41 204,41 " />
<polyline fill="none" vector-effect="non-scaling-stroke" points="204,41 209,42 " />
<polyline fill="none" vector-effect="non-scaling-stroke" points="209,42 215,43 " />
<polyline fill="none" vector-effect="non-scaling-stroke" points="215,43 220,44 " />
<polyline fill="none" vector-effect="non-scaling-stroke" points="220,44 225,45 " />
<polyline fill="none" vector-effect="non-scaling-stroke" points="225,45 230,46 " />
<polyline fill="none" vector-effect="non-scaling-stroke" points="230,46 235,47 " />
<polyline fill="none" vector-effect="non-scaling-stroke" points="235,47 241,48 " />
<polyline fill="none" vector-effect="non-scaling-stroke" points="241,48 246,49 " />
<polyline fill="none" vector-effect="non-scaling-stroke" points="246,49 251,51 " />
<polyline fill="none" vector-effect="non-scaling-stroke" points="251,51 256,52 " />
<polyline fill="none" vector-effect="non-scaling-stroke" points="256,52 262,53 " />
<polyline fill="none" vector-effect="non-scaling-stroke" points="262,53 267,54 " />
<polyline fill="none" vector-effect="non-scaling-stroke" points="267,54 272,56 " />
<polyline fill="none" vector-effect="non-scaling-stroke" points="272,56 277,57 " />
<polyline fill="none" vector-effect="non-scaling-stroke" points="277,57 282,59 " />
<polyline fill="none" vector-effect="non-scaling-stroke" points="282,59 288,60 " />
<polyline fill="none" vector-effect="non-scaling-stroke" points="288,60 293,61 " />
<polyline fill="none" vector-effect="non-scaling-stroke" points="293,61 298,63 " />
<polyline fill="none" vector-effect="non-scaling-stroke" points="298,63 303,64 " />
<polyline fill="none" vector-effect="non-scaling-stroke" points="303,64 309,66 " />
<polyline fill="none" vector-effect="non-scaling-stroke" points="309,66 314,67 " />
<polyline fill="none" vector-effect="non-scaling-stroke" points="314,67 319,69 " />
<polyline fill="none" vector-effect="non-scaling-stroke" points="319,69 324,70 " />
<polyline fill="none" vector-effect="non-scaling-stroke" points="324,70 329,72 " />
<polyline fill="none" vector-effect="non-scaling-stroke" points="329,72 335,73 " />
<polyline fill="none" vector-effect="non-scaling-stroke" points="335,73 340,74 " />
<polyline fill="none" vector-effect="non-scaling-stroke" points="340,74 345,76 " />
<polyline fill="none" vector-effect="non-scaling-stroke" points="345,76 350,77 " />
<polyline fill="none" vector-effect="non-scaling-stroke" points="350,77 356,79 " />
<polyline fill="none" vector-effect="non-scaling-stroke" points="356,79 361,80 " />
<polyline fill="none" vector-effect="non-scaling-stroke" points="361,80 366,82 " />
<polyline fill="none" vector-effect="non-scaling-stroke" points="366,82 371,83 " />
<polyline fill="none" vector-effect="non-scaling-stroke" points="371,83 376,85 " />
<polyline fill="none" vector-effect="non-scaling-stroke" points="376,85 382,86 " />
<polyline fill="none" vector-effect="non-scaling-stroke" points="382,86 387,88 " />
<polyline fill="none" vector-effect="non-scaling-stroke" points="387,88 392,89 " />
<polyline fill="none" vector-effect="non-scaling-stroke" points="392,89 397,91 " />
<polyline fill="none" vector-effect="non-scaling-stroke" points="397,91 403,92 " />
<polyline fill="none" vector-effect="non-scaling-stroke" points="403,92 408,94 " />
<polyline fill="none" vector-effect="non-scaling-stroke" points="408,94 413,95 " />
<polyline fill="none" vector-effect="non-scaling-stroke" points="413,95 418,97 " />
<polyline fill="none" vector-effect="non-scaling-stroke" points="418,97 423,98 " />
<polyline fill="none" vector-effect="non-scaling-stroke" points="423,98 429,100 " />
<polyline fill="none" vector-effect="non-scaling-stroke" points="429,100 434,102 " />
<polyline fill="none" vector-effect="non-scaling-stroke" points="434,102 439,103 " />
<polyline fill="none" vector-effect="non-scaling-stroke" points="439,103 444,105 " />
<polyline fill="none" vector-effect="non-scaling-stroke" points="444,105 450,106 " />
<polyline fill="none" vector-effect="non-scaling-stroke" points="450,106 455,108 " />
<polyline fill="none" vector-effect="non-scaling-stroke" points="455,108 460,110 " />
<polyline fill="none" vector-effect="non-scaling-stroke" points="460,110 465,111 " />
<polyline fill="none" vector-effect="non-scaling-stroke" points="465,111 470,113 " />
<polyline fill="none" vector-effect="non-scaling-stroke" points="470,113 476,115 " />
<polyline fill="none" vector-effect="non-scaling-stroke" points="476,115 481,117 " />
<polyline fill="none" vector-effect="non-scaling-stroke" points="481,117 486,118 " />
<polyline fill="none" vector-effect="non-scaling-stroke" points="486,118 491,120 " />
<polyline fill="none" vector-effect="non-scaling-stroke" points="491,120 497,122 " />
<polyline fill="none" vector-effect="non-scaling-stroke" points="497,122 502,124 " />
<polyline fill="none" vector-effect="non-scaling-stroke" points="502,124 507,126 " />
<polyline fill="none" vector-effect="non-scaling-stroke" points="507,126 512,129 " />
<polyline fill="none" vector-effect="non-scaling-stroke" points="512,129 517,131 " />
<polyline fill="none" vector-effect="non-scaling-stroke" points="517,131 523,134 " />
<polyline fill="none" vector-effect="non-scaling-stroke" points="523,134 528,136 " />
<polyline fill="none" vector-effect="non-scaling-stroke" points="528,136 533,139 " />
<polyline fill="none" vector-effect="non-scaling-stroke" points="533,139 538,143 " />
<polyline fill="none" vector-effect="non-scaling-stroke" points="538,143 544,147 " />
<polyline fill="none" vector-effect="non-scaling-stroke" points="544,147 549,151 " />
<polyline fill="none" vector-effect="non-scaling-stroke" points="549,151 554,156 " />
<polyline fill="none" vector-effect="non-scaling-stroke" points="554,156 559,163 " />
<polyline fill="none" vector-effect="non-scaling-stroke" points="559,163 564,171 " />
<polyline fill="none" vector-effect="non-scaling-stroke" points="564,171 570,181 " />
<polyline fill="none" vector-effect="non-scaling-stroke" points="570,181 575,194 " />
<polyline fill="none" vector-effect="non-scaling-stroke" points="575,194 580,214 " />
<polyline fill="none" vector-effect="non-scaling-stroke" points="580,214 585,253 " />
<polyline fill="none" vector-effect="non-scaling-stroke" points="585,253 591,287 " />
<polyline fill="none" vector-effect="non-scaling-stroke" points="591,287 596,229 " />
<polyline fill="none" vector-effect="non-scaling-stroke" points="596,229 601,207 " />
</g>

<g fill="#ff0000" fill-opacity="1" stroke="none" transform="matrix(1,0,0,1,0,0)"
font-family="Helvetica" font-size="16" font-weight="400" font-style="normal" 
>
<path vector-effect="non-scaling-stroke" fill-rule="evenodd" d="M83.5,71.5 L84.5,71.5 L84.5,72.5 L83.5,72.5 L83.5,71.5"/>
</g>

<g fill="none" stroke="#ff0000" stroke-opacity="1" stroke-width="1" stroke-linecap="square" stroke-linejoin="bevel" transform="matrix(1,0,0,1,0,0)"
font-family="Helvetica" font-size="16" font-weight="400" font-style="normal" 
>
<polyline fill="none" vector-effect="non-scaling-stroke" points="84,72 89,69 " />
<polyline fill="none" vector-effect="non-scaling-stroke" points="89,69 94,66 " />
<polyline fill="none" vector-effect="non-scaling-stroke" points="94,66 100,64 " />
<polyline fill="none" vector-effect="non-scaling-stroke" points="100,64 105,61 " />
<polyline fill="none" vector-effect="non-scaling-stroke" points="105,61 110,59 " />
<polyline fill="none" vector-effect="non-scaling-stroke" points="110,59 115,56 " />
<polyline fill="none" vector-effect="non-scaling-stroke" points="115,56 121,54 " />
<polyline fill="none" vector-effect="non-scaling-stroke" points="121,54 126,52 " />
<polyline fill="none" vector-effect="non-scaling-stroke" points="126,52 131,50 " />
<polyline fill="none" vector-effect="non-scaling-stroke" points="131,50 136,48 " />
<polyline fill="none" vector-effect="non-scaling-stroke" points="136,48 141,46 " />
<polyline fill="none" vector-effect="non-scaling-stroke" points="141,46 147,45 " />
<polyline fill="none" vector-effect="non-scaling-stroke" points="147,45 152,43 " />
<polyline fill="none" vector-effect="non-scaling-stroke" points="152,43 157,42 " />
<polyline fill="none" vector-effect="non-scaling-stroke" points="157,42 162,41 " />
<polyline fill="none" vector-effect="non-scaling-stroke" points="162,41 168,41 " />
<polyline fill="none" vector-effect="non-scaling-stroke" points="168,41 173,40 " />
<polyline fill="none" vector-effect="non-scaling-stroke" points="173,40 178,40 " />
<polyline fill="none" vector-effect="non-scaling-stroke" points="178,40 183,40 " />
<polyline fill="none" vector-effect="non-scaling-stroke" points="183,40 188,40 " />
<polyline fill="none" vector-effect="non-scaling-stroke" points="188,40 194,40 " />
<polyline fill="none" vector-effect="non-scaling-stroke" points="194,40 199,41 " />
<polyline fill="none" vector-effect="non-scaling-stroke" points="199,41 204,41 " />
<polyline fill="none" vector-effect="non-scaling-stroke" points="204,41 209,42 " />
<polyline fill="none" vector-effect="non-scaling-stroke" points="209,42 215,43 " />
<polyline fill="none" vector-effect="non-scaling-stroke" points="215,43 220,44 " />
<polyline fill="none" vector-effect="non-scaling-stroke" points="220,44 225,45 " />
<polyline fill="none" vector-effect="non-scaling-stroke" points="225,45 230,46 " />
<polyline fill="none" vector-effect="non-scaling-stroke" points="230,46 235,47 " />
<polyline fill="none" vector-effect="non-scaling-stroke" points="235,47 241,48 " />
<polyline fill="none" vector-effect="non-scaling-stroke" points="241,48 246,49 " />
<polyline fill="none" vector-effect="non-scaling-stroke" points="246,49 251,51 " />
<polyline fill="none" vector-effect="non-scaling-stroke" points="251,51 256,52 " />
<polyline fill="none" vector-effect="non-scaling-stroke" points="256,52 262,53 " />
<polyline fill="none" vector-effect="non-scaling-stroke" points="262,53 267,54 " />
<polyline fill="none" vector-effect="non-scaling-stroke" points="267,54 272,56 " />
<polyline fill="none" vector-effect="non-scaling-stroke" points="272,56 277,57 " />
<polyline fill="none" vector-effect="non-scaling-stroke" points="277,57 282,59 " />
<polyline fill="none" vector-effect="non-scaling-stroke" points="282,59 288,60 " />
<polyline fill="none" vector-effect="non-scaling-stroke" points="288,60 293,61 " />
<polyline fill="none" vector-effect="non-scaling-stroke" points="293,61 298,63 " />
<polyline fill="none" vector-effect="non-scaling-stroke" points="298,63 303,64 " />
<polyline fill="none" vector-effect="non-scaling-stroke" points="303,64 309,66 " />
<polyline fill="none" vector-effect="non-scaling-stroke" points="309,66 314,67 " />
<polyline fill="none" vector-effect="non-scaling-stroke" points="314,67 319,69 " />
<polyline fill="none" vector-effect="non-scaling-stroke" points="319,69 324,70 " />
<polyline fill="none" vector-effect="non-scaling-stroke" points="324,70 329,72 " />
<polyline fill="none" vector-effect="non-scaling-stroke" points="329,72 335,73 " />
<polyline fill="none" vector-effect="non-scaling-stroke" points="335,73 340,74 " />
<polyline fill="none" vector-effect="non-scaling-stroke" points="340,74 345,76 " />
<polyline fill="none" vector-effect="non-scaling-stroke" points="345,76 350,77 " />
<polyline fill="none" vector-effect="non-scaling-stroke" points="350,77 356,79 " />
<polyline fill="none" vector-effect="non-scaling-stroke" points="356,79 361,80 " />
<polyline fill="none" vector-effect="non-scaling-stroke" points="361,80 366,82 " />
<polyline fill="none" vector-effect="non-scaling-stroke" points="366,82 371,83 " />
<polyline fill="none" vector-effect="non-scaling-stroke" points="371,83 376,85 " />
<polyline fill="none" vector-effect="non-scaling-stroke" points="376,85 382,86 " />
<polyline fill="none" vector-effect="non-scaling-stroke" points="382,86 387,88 " />
<polyline fill="none" vector-effect="non-scaling-stroke" points="387,88 392,89 " />
<polyline fill="none" vector-effect="non-scaling-stroke" points="392,89 397,91 " />
<polyline fill="none" vector-effect="non-scaling-stroke" points="397,91 403,92 " />
<polyline fill="none" vector-effect="non-scaling-stroke" points="403,92 408,94 " />
<polyline fill="none" vector-effect="non-scaling-stroke" points="408,94 413,95 " />
<polyline fill="none" vector-effect="non-scaling-stroke" points="413,95 418,97 " />
<polyline fill="none" vector-effect="non-scaling-stroke" points="418,97 423,98 " />
<polyline fill="none" vector-effect="non-scaling-stroke" points="423,98 429,100 " />
<polyline fill="none" vector-effect="non-scaling-stroke" points="429,100 434,102 " />
<polyline fill="none" vector-effect="non-scaling-stroke" points="434,102 439,103 " />
<polyline fill="none" vector-effect="non-scaling-stroke" points="439,103 444,105 " />
<polyline fill="none" vector-effect="non-scaling-stroke" points="444,105 450,106 " />
<polyline fill="none" vector-effect="non-scaling-stroke" points="450,106 455,108 " />
<polyline fill="none" vector-effect="non-scaling-stroke" points="455,108 460,110 " />
<polyline fill="none" vector-effect="non-scaling-stroke" points="460,110 465,111 " />
<polyline fill="none" vector-effect="non-scaling-stroke" points="465,111 470,113 " />
<polyline fill="none" vector-effect="non-scaling-stroke" points="470,113 476,115 " />
<polyline fill="none" vector-effect="non-scaling-stroke" points="476,115 481,117 " />
<polyline fill="none" vector-effect="non-scaling-stroke" points="481,117 486,118 " />
<polyline fill="none" vector-effect="non-scaling-stroke" points="486,118 491,120 " />
<polyline fill="none" vector-effect="non-scaling-stroke" points="491,120 497,122 " />
<polyline fill="none" vector-effect="non-scaling-stroke" points="497,122 502,124 " />
<polyline fill="none" vector-effect="non-scaling-stroke" points="502,124 507,126 " />
<polyline fill="none" vector-effect="non-scaling-stroke" points="507,126 512,129 " />
<polyline fill="none" vector-effect="non-scaling-stroke" points="512,129 517,131 " />
<polyline fill="none" vector-effect="non-scaling-stroke" points="517,131 523,134 " />
<polyline fill="none" vector-effect="non-scaling-stroke" points="523,134 528,136 " />
<polyline fill="none" vector-effect="non-scaling-stroke" points="528,136 533,139 " />
<polyline fill="none" vector-effect="non-scaling-stroke" points="533,139 538,143 " />
<polyline fill="none" vector-effect="non-scaling-stroke" points="538,143 544,147 " />
<polyline fill="none" vector-effect="non-scaling-stroke" points="544,147 549,151 " />
<polyline fill="none" vector-effect="non-scaling-stroke" points="549,151 554,156 " />
<polyline fill="none" vector-effect="non-scaling-stroke" points="554,156 559,163 " />
<polyline fill="none" vector-effect="non-scaling-stroke" points="559,163 564,171 " />
<polyline fill="none" vector-effect="non-scaling-stroke" points="564,171 570,181 " />
<polyline fill="none" vector-effect="non-scaling-stroke" points="570,181 575,194 " />
<polyline fill="none" vector-effect="non-scaling-stroke" points="575,194 580,214 " />
<polyline fill="none" vector-effect="non-scaling-stroke" points="580,214 585,253 " />
<polyline fill="none" vector-effect="non-scaling-stroke" points="585,253 591,287 " />
<polyline fill="none" vector-effect="non-scaling-stroke" points="591,287 596,229 " />
<polyline fill="none" vector-effect="non-scaling-stroke" points="596,229 601,207 " />
</g>

<g fill="#ff0000" fill-opacity="1" stroke="none" transform="matrix(1,0,0,1,0,0)"
font-family="Helvetica" font-size="16" font-weight="400" font-style="normal" 
>
<path vector-effect="non-scaling-stroke" fill-rule="evenodd" d="M83.5,71.5 L84.5,71.5 L84.5,72.5 L83.5,72.5 L83.5,71.5"/>
</g>

<g fill="none" stroke="#ff0000" stroke-opacity="1" stroke-width="1" stroke-linecap="square" stroke-linejoin="bevel" transform="matrix(1,0,0,1,0,0)"
font-family="Helvetica" font-size="16" font-weight="400" font-style="normal" 
>
<polyline fill="none" vector-effect="non-scaling-stroke" points="84,72 89,69 " />
<polyline fill="none" vector-effect="non-scaling-stroke" points="89,69 94,66 " />
<polyline fill="none" vector-effect="non-scaling-stroke" points="94,66 100,64 " />
<polyline fill="none" vector-effect="non-scaling-stroke" points="100,64 105,61 " />
<polyline fill="none" vector-effect="non-scaling-stroke" points="105,61 110,59 " />
<polyline fill="none" vector-effect="non-scaling-stroke" points="110,59 115,56 " />
<polyline fill="none" vector-effect="non-scaling-stroke" points="115,56 121,54 " />
<polyline fill="none" vector-effect="non-scaling-stroke" points="121,54 126,52 " />
<polyline fill="none" vector-effect="non-scaling-stroke" points="126,52 131,50 " />
<polyline fill="none" vector-effect="non-scaling-stroke" points="131,50 136,48 " />
<polyline fill="none" vector-effect="non-scaling-stroke" points="136,48 141,46 " />
<polyline fill="none" vector-effect="non-scaling-stroke" points="141,46 147,45 " />
<polyline fill="none" vector-effect="non-scaling-stroke" points="147,45 152,43 " />
<polyline fill="none" vector-effect="non-scaling-stroke" points="152,43 157,42 " />
<polyline fill="none" vector-effect="non-scaling-stroke" points="157,42 162,41 " />
<polyline fill="none" vector-effect="non-scaling-stroke" points="162,41 168,41 " />
<polyline fill="none" vector-effect="non-scaling-stroke" points="168,41 173,40 " />
<polyline fill="none" vector-effect="non-scaling-stroke" points="173,40 178,40 " />
<polyline fill="none" vector-effect="non-scaling-stroke" points="178,40 183,40 " />
<polyline fill="none" vector-effect="non-scaling-stroke" points="183,40 188,40 " />
<polyline fill="none" vector-effect="non-scaling-stroke" points="188,40 194,40 " />
<polyline fill="none" vector-effect="non-scaling-stroke" points="194,40 199,41 " />
<polyline fill="none" vector-effect="non-scaling-stroke" points="199,41 204,41 " />
<polyline fill="none" vector-effect="non-scaling-stroke" points="204,41 209,42 " />
<polyline fill="none" vector-effect="non-scaling-stroke" points="209,42 215,43 " />
<polyline fill="none" vector-effect="non-scaling-stroke" points="215,43 220,44 " />
<polyline fill="none" vector-effect="non-scaling-stroke" points="220,44 225,45 " />
<polyline fill="none" vector-effect="non-scaling-stroke" points="225,45 230,46 " />
<polyline fill="none" vector-effect="non-scaling-stroke" points="230,46 235,47 " />
<polyline fill="none" vector-effect="non-scaling-stroke" points="235,47 241,48 " />
<polyline fill="none" vector-effect="non-scaling-stroke" points="241,48 246,49 " />
<polyline fill="none" vector-effect="non-scaling-stroke" points="246,49 251,51 " />
<polyline fill="none" vector-effect="non-scaling-stroke" points="251,51 256,52 " />
<polyline fill="none" vector-effect="non-scaling-stroke" points="256,52 262,53 " />
<polyline fill="none" vector-effect="non-scaling-stroke" points="262,53 267,54 " />
<polyline fill="none" vector-effect="non-scaling-stroke" points="267,54 272,56 " />
<polyline fill="none" vector-effect="non-scaling-stroke" points="272,56 277,57 " />
<polyline fill="none" vector-effect="non-scaling-stroke" points="277,57 282,59 " />
<polyline fill="none" vector-effect="non-scaling-stroke" points="282,59 288,60 " />
<polyline fill="none" vector-effect="non-scaling-stroke" points="288,60 293,61 " />
<polyline fill="none" vector-effect="non-scaling-stroke" points="293,61 298,63 " />
<polyline fill="none" vector-effect="non-scaling-stroke" points="298,63 303,64 " />
<polyline fill="none" vector-effect="non-scaling-stroke" points="303,64 309,66 " />
<polyline fill="none" vector-effect="non-scaling-stroke" points="309,66 314,67 " />
<polyline fill="none" vector-effect="non-scaling-stroke" points="314,67 319,69 " />
<polyline fill="none" vector-effect="non-scaling-stroke" points="319,69 324,70 " />
<polyline fill="none" vector-effect="non-scaling-stroke" points="324,70 329,72 " />
<polyline fill="none" vector-effect="non-scaling-stroke" points="329,72 335,73 " />
<polyline fill="none" vector-effect="non-scaling-stroke" points="335,73 340,74 " />
<polyline fill="none" vector-effect="non-scaling-stroke" points="340,74 345,76 " />
<polyline fill="none" vector-effect="non-scaling-stroke" points="345,76 350,77 " />
<polyline fill="none" vector-effect="non-scaling-stroke" points="350,77 356,79 " />
<polyline fill="none" vector-effect="non-scaling-stroke" points="356,79 361,80 " />
<polyline fill="none" vector-effect="non-scaling-stroke" points="361,80 366,82 " />
<polyline fill="none" vector-effect="non-scaling-stroke" points="366,82 371,83 " />
<polyline fill="none" vector-effect="non-scaling-stroke" points="371,83 376,85 " />
<polyline fill="none" vector-effect="non-scaling-stroke" points="376,85 382,86 " />
<polyline fill="none" vector-effect="non-scaling-stroke" points="382,86 387,88 " />
<polyline fill="none" vector-effect="non-scaling-stroke" points="387,88 392,89 " />
<polyline fill="none" vector-effect="non-scaling-stroke" points="392,89 397,91 " />
<polyline fill="none" vector-effect="non-scaling-stroke" points="397,91 403,92 " />
<polyline fill="none" vector-effect="non-scaling-stroke" points="403,92 408,94 " />
<polyline fill="none" vector-effect="non-scaling-stroke" points="408,94 413,95 " />
<polyline fill="none" vector-effect="non-scaling-stroke" points="413,95 418,97 " />
<polyline fill="none" vector-effect="non-scaling-stroke" points="418,97 423,98 " />
<polyline fill="none" vector-effect="non-scaling-stroke" points="423,98 429,100 " />
<polyline fill="none" vector-effect="non-scaling-stroke" points="429,100 434,102 " />
<polyline fill="none" vector-effect="non-scaling-stroke" points="434,102 439,103 " />
<polyline fill="none" vector-effect="non-scaling-stroke" points="439,103 444,105 " />
<polyline fill="none" vector-effect="non-scaling-stroke" points="444,105 450,106 " />
<polyline fill="none" vector-effect="non-scaling-stroke" points="450,106 455,108 " />
<polyline fill="none" vector-effect="non-scaling-stroke" points="455,108 460,110 " />
<polyline fill="none" vector-effect="non-scaling-stroke" points="460,110 465,111 " />
<polyline fill="none" vector-effect="non-scaling-stroke" points="465,111 470,113 " />
<polyline fill="none" vector-effect="non-scaling-stroke" points="470,113 476,115 " />
<polyline fill="none" vector-effect="non-scaling-stroke" points="476,115 481,117 " />
<polyline fill="none" vector-effect="non-scaling-stroke" points="481,117 486,118 " />
<polyline fill="none" vector-effect="non-scaling-stroke" points="486,118 491,120 " />
<polyline fill="none" vector-effect="non-scaling-stroke" points="491,120 497,122 " />
<polyline fill="none" vector-effect="non-scaling-stroke" points="497,122 502,124 " />
<polyline fill="none" vector-effect="non-scaling-stroke" points="502,124 507,126 " />
<polyline fill="none" vector-effect="non-scaling-stroke" points="507,126 512,129 " />
<polyline fill="none" vector-effect="non-scaling-stroke" points="512,129 517,131 " />
<polyline fill="none" vector-effect="non-scaling-stroke" points="517,131 523,134 " />
<polyline fill="none" vector-effect="non-scaling-stroke" points="523,134 528,136 " />
<polyline fill="none" vector-effect="non-scaling-stroke" points="528,136 533,139 " />
<polyline fill="none" vector-effect="non-scaling-stroke" points="533,139 538,143 " />
<polyline fill="none" vector-effect="non-scaling-stroke" points="538,143 544,147 " />
<polyline fill="none" vector-effect="non-scaling-stroke" points="544,147 549,151 " />
<polyline fill="none" vector-effect="non-scaling-stroke" points="549,151 554,156 " />
<polyline fill="none" vector-effect="non-scaling-stroke" points="554,156 559,163 " />
<polyline fill="none" vector-effect="non-scaling-stroke" points="559,163 564,171 " />
<polyline fill="none" vector-effect="non-scaling-stroke" points="564,171 570,181 " />
<polyline fill="none" vector-effect="non-scaling-stroke" points="570,181 575,194 " />
<polyline fill="none" vector-effect="non-scaling-stroke" points="575,194 580,214 " />
<polyline fill="none" vector-effect="non-scaling-stroke" points="580,214 585,253 " />
<polyline fill="none" vector-effect="non-scaling-stroke" points="585,253 591,287 " />
<polyline fill="none" vector-effect="non-scaling-stroke" points="591,287 596,229 " />
<polyline fill="none" vector-effect="non-scaling-stroke" points="596,229 601,207 " />
</g>

<g fill="none" stroke="#000000" stroke-opacity="1" stroke-width="1" stroke-linecap="square" stroke-linejoin="bevel" transform="matrix(1,0,0,1,71,330)"
font-family="Helvetica" font-size="16" font-weight="400" font-style="normal" 
>
<text fill="#000000" fill-opacity="1" stroke="none" xml:space="preserve" x="0" y="0" font-family="Helvetica" font-size="16" font-weight="400" font-style="normal" 
 >1e8</text>
</g>

<g fill="none" stroke="#000000" stroke-opacity="1" stroke-width="1" stroke-linecap="square" stroke-linejoin="bevel" transform="matrix(1,0,0,1,421,330)"
font-family="Helvetica" font-size="16" font-weight="400" font-style="normal" 
>
<text fill="#000000" fill-opacity="1" stroke="none" xml:space="preserve" x="0" y="0" font-family="Helvetica" font-size="16" font-weight="400" font-style="normal" 
 >1e9</text>
</g>

<g fill="none" stroke="#000000" stroke-opacity="1" stroke-width="1" stroke-linecap="square" stroke-linejoin="bevel" transform="matrix(1,0,0,1,588,330)"
font-family="Helvetica" font-size="16" font-weight="400" font-style="normal" 
>
<text fill="#000000" fill-opacity="1" stroke="none" xml:space="preserve" x="0" y="0" font-family="Helvetica" font-size="16" font-weight="400" font-style="normal" 
 >3e9</text>
</g>

<g fill="none" stroke="#000000" stroke-opacity="1" stroke-width="1" stroke-linecap="square" stroke-linejoin="bevel" transform="matrix(1,0,0,1,45,253)"
font-family="Helvetica" font-size="16" font-weight="400" font-style="normal" 
>
<text fill="#000000" fill-opacity="1" stroke="none" xml:space="preserve" x="0" y="0" font-family="Helvetica" font-size="16" font-weight="400" font-style="normal" 
 >-100</text>
</g>

<g fill="none" stroke="#000000" stroke-opacity="1" stroke-width="1" stroke-linecap="square" stroke-linejoin="bevel" transform="matrix(1,0,0,1,54,156)"
font-family="Helvetica" font-size="16" font-weight="400" font-style="normal" 
>
<text fill="#000000" fill-opacity="1" stroke="none" xml:space="preserve" x="0" y="0" font-family="Helvetica" font-size="16" font-weight="400" font-style="normal" 
 >-80</text>
</g>

<g fill="none" stroke="#000000" stroke-opacity="1" stroke-width="1" stroke-linecap="square" stroke-linejoin="bevel" transform="matrix(1,0,0,1,54,59)"
font-family="Helvetica" font-size="16" font-weight="400" font-style="normal" 
>
<text fill="#000000" fill-opacity="1" stroke="none" xml:space="preserve" x="0" y="0" font-family="Helvetica" font-size="16" font-weight="400" font-style="normal" 
 >-60</text>
</g>

<g fill="none" stroke="#ff0000" stroke-opacity="1" stroke-width="1" stroke-linecap="square" stroke-linejoin="bevel" transform="matrix(1,0,0,1,307,353)"
font-family="Helvetica" font-size="16" font-weight="400" font-style="normal" 
>
<text fill="#ff0000" fill-opacity="1" stroke="none" xml:space="preserve" x="0" y="0" font-family="Helvetica" font-size="16" font-weight="400" font-style="normal" 
 >frequency</text>
</g>

<g fill="none" stroke="#ff0000" stroke-opacity="1" stroke-width="1" stroke-linecap="square" stroke-linejoin="bevel" transform="matrix(0,-1,1,0,38,178)"
font-family="Helvetica" font-size="16" font-weight="400" font-style="normal" 
>
<text fill="#ff0000" fill-opacity="1" stroke="none" xml:space="preserve" x="0" y="0" font-family="Helvetica" font-size="16" font-weight="400" font-style="normal" 
 >S41</text>
</g>

<g fill="none" stroke="#ff0000" stroke-opacity="1" stroke-width="1" stroke-linecap="square" stroke-linejoin="bevel" transform="matrix(1,0,0,1,0,0)"
font-family="Helvetica" font-size="16" font-weight="400" font-style="normal" 
>
</g>
</g>
</svg>
