%FSLAX43Y43*%
%MOMM*%
G71*
G01*
G75*
G04 Layer_Color=16711935*
%ADD10R,1.350X4.800*%
%ADD11R,1.270X4.200*%
%ADD12R,4.800X1.350*%
%ADD13R,4.200X1.270*%
%ADD14R,0.350X0.350*%
%ADD15R,0.350X0.350*%
%ADD16R,1.000X1.100*%
%ADD17R,1.100X1.000*%
%ADD18C,1.630*%
%ADD19C,0.254*%
%ADD20C,2.200*%
%ADD21C,1.270*%
%ADD22C,0.127*%
%ADD23R,1.553X5.003*%
%ADD24R,1.473X4.403*%
%ADD25R,5.003X1.553*%
%ADD26R,4.403X1.473*%
%ADD27R,0.553X0.553*%
%ADD28R,0.553X0.553*%
%ADD29R,1.203X1.303*%
%ADD30R,1.303X1.203*%
%ADD31C,2.403*%
%ADD32C,1.473*%
G54D19*
X43750Y250D02*
Y30750D01*
X0Y250D02*
X43750D01*
X0Y30750D02*
X43750D01*
X0Y250D02*
Y30750D01*
G54D23*
X18675Y27250D02*
D03*
X24325D02*
D03*
G54D25*
X3250Y12675D02*
D03*
Y18325D02*
D03*
X40250D02*
D03*
Y12675D02*
D03*
G54D31*
X18960Y2500D02*
D03*
X21500D02*
D03*
X24040D02*
D03*
G54D32*
X26500Y19250D02*
D03*
X20750Y6500D02*
D03*
X22250D02*
D03*
X28000Y19250D02*
D03*
X32000D02*
D03*
X33500D02*
D03*
X38750Y19000D02*
D03*
X40250D02*
D03*
X41750D02*
D03*
X38750Y12000D02*
D03*
X40250D02*
D03*
X41750D02*
D03*
X1750D02*
D03*
X3250D02*
D03*
X4750D02*
D03*
X1750Y19000D02*
D03*
X3250D02*
D03*
X4750D02*
D03*
X18000Y26000D02*
D03*
Y27500D02*
D03*
Y29000D02*
D03*
X25000D02*
D03*
Y27500D02*
D03*
Y26000D02*
D03*
X9750Y19250D02*
D03*
X11250D02*
D03*
X16750Y20500D02*
D03*
X15500Y19500D02*
D03*
M02*
