%FSLAX43Y43*%
%MOMM*%
G71*
G01*
G75*
G04 Layer_Color=8388736*
%ADD10R,1.350X4.800*%
%ADD11R,1.270X4.200*%
%ADD12R,4.800X1.350*%
%ADD13R,4.200X1.270*%
%ADD14R,0.350X0.350*%
%ADD15R,0.350X0.350*%
%ADD16R,1.000X1.100*%
%ADD17R,1.100X1.000*%
%ADD18C,1.630*%
%ADD19C,0.254*%
%ADD20C,2.200*%
%ADD21C,1.270*%
%ADD22C,0.127*%
%ADD23R,1.553X5.003*%
%ADD24R,1.473X4.403*%
%ADD25R,5.003X1.553*%
%ADD26R,4.403X1.473*%
%ADD27R,0.553X0.553*%
%ADD28R,0.553X0.553*%
%ADD29R,1.203X1.303*%
%ADD30R,1.303X1.203*%
%ADD31C,2.403*%
%ADD32C,1.473*%
G54D19*
X43750Y250D02*
Y30750D01*
X0Y250D02*
X43750D01*
X0Y30750D02*
X43750D01*
X0Y250D02*
Y30750D01*
G54D23*
X24325Y27250D02*
D03*
X18675D02*
D03*
G54D24*
X21500Y27450D02*
D03*
G54D25*
X3250Y18325D02*
D03*
Y12675D02*
D03*
X40250D02*
D03*
Y18325D02*
D03*
G54D26*
X3050Y15500D02*
D03*
X40450D02*
D03*
G54D27*
X17575Y15500D02*
D03*
X18925D02*
D03*
X25675D02*
D03*
X24325D02*
D03*
G54D28*
X16000Y17675D02*
D03*
Y16325D02*
D03*
X27250Y17675D02*
D03*
Y16325D02*
D03*
G54D29*
X20600Y16150D02*
D03*
Y17850D02*
D03*
X22500Y21900D02*
D03*
Y23600D02*
D03*
X22600Y16150D02*
D03*
Y17850D02*
D03*
X20500Y21900D02*
D03*
Y23600D02*
D03*
X15000Y9100D02*
D03*
Y7400D02*
D03*
X26250D02*
D03*
Y9100D02*
D03*
X20500Y9150D02*
D03*
Y10850D02*
D03*
Y14350D02*
D03*
Y12650D02*
D03*
X15000Y10900D02*
D03*
Y12600D02*
D03*
X28250D02*
D03*
Y10900D02*
D03*
X21100Y20000D02*
D03*
X19400D02*
D03*
G54D30*
X14100Y16500D02*
D03*
X12400D02*
D03*
X8600Y14500D02*
D03*
X6900D02*
D03*
X29150D02*
D03*
X30850D02*
D03*
X34650Y16500D02*
D03*
X36350D02*
D03*
X8600Y16500D02*
D03*
X6900D02*
D03*
X14100Y14500D02*
D03*
X12400D02*
D03*
X29150Y16500D02*
D03*
X30850D02*
D03*
X34650Y14500D02*
D03*
X36350D02*
D03*
X18100Y5500D02*
D03*
X16400D02*
D03*
X24900D02*
D03*
X26600D02*
D03*
X32750Y17600D02*
D03*
Y15900D02*
D03*
X10500D02*
D03*
Y17600D02*
D03*
X22500Y14350D02*
D03*
Y12650D02*
D03*
X17000Y12600D02*
D03*
Y10900D02*
D03*
X26250D02*
D03*
Y12600D02*
D03*
X22500Y10850D02*
D03*
Y9150D02*
D03*
X17000Y7400D02*
D03*
Y9100D02*
D03*
X28250D02*
D03*
Y7400D02*
D03*
G54D31*
X18960Y2500D02*
D03*
X21500D02*
D03*
X24040D02*
D03*
G54D32*
X26500Y19250D02*
D03*
X20750Y6500D02*
D03*
X22250D02*
D03*
X28000Y19250D02*
D03*
X32000D02*
D03*
X33500D02*
D03*
X38750Y19000D02*
D03*
X40250D02*
D03*
X41750D02*
D03*
X38750Y12000D02*
D03*
X40250D02*
D03*
X41750D02*
D03*
X1750D02*
D03*
X3250D02*
D03*
X4750D02*
D03*
X1750Y19000D02*
D03*
X3250D02*
D03*
X4750D02*
D03*
X18000Y26000D02*
D03*
Y27500D02*
D03*
Y29000D02*
D03*
X25000D02*
D03*
Y27500D02*
D03*
Y26000D02*
D03*
X9750Y19250D02*
D03*
X11250D02*
D03*
X16750Y20500D02*
D03*
X15500Y19500D02*
D03*
M02*
