%FSLAX43Y43*%
%MOMM*%
G71*
G01*
G75*
%ADD10R,1.350X4.800*%
%ADD11R,1.270X4.200*%
%ADD12R,4.800X1.350*%
%ADD13R,4.200X1.270*%
%ADD14R,0.350X0.350*%
%ADD15R,0.350X0.350*%
%ADD16R,1.000X1.100*%
%ADD17R,1.100X1.000*%
%ADD18C,1.630*%
%ADD19C,0.254*%
%ADD20C,2.200*%
%ADD21C,1.270*%
%ADD22C,0.127*%
G54D19*
X17525Y975D02*
Y4050D01*
X25475Y975D02*
Y4050D01*
X17525D02*
X25475D01*
X17525Y975D02*
X25475D01*
X43750Y250D02*
Y30750D01*
X0Y250D02*
X43750D01*
X0Y30750D02*
X43750D01*
X0Y250D02*
Y30750D01*
G54D22*
X17700Y29850D02*
X25300D01*
X17625Y26000D02*
Y29750D01*
X25375Y26000D02*
Y29750D01*
X650Y11700D02*
Y19300D01*
X750Y11625D02*
X4500D01*
X750Y19375D02*
X4500D01*
X42850Y11700D02*
Y19300D01*
X39000Y19375D02*
X42750D01*
X39000Y11625D02*
X42750D01*
X17550Y15100D02*
X18950D01*
X17550Y15900D02*
X18950D01*
X17945Y15125D02*
Y15830D01*
X24300Y15900D02*
X25700D01*
X24300Y15100D02*
X25700D01*
X25305Y15170D02*
Y15875D01*
X15600Y16300D02*
Y17700D01*
X16400Y16300D02*
Y17700D01*
X15625Y17305D02*
X16330D01*
X26850Y16300D02*
Y17700D01*
X27650Y16300D02*
Y17700D01*
X26875Y17305D02*
X27580D01*
X19838Y16111D02*
Y18041D01*
X21362Y15984D02*
Y18067D01*
X21738Y21861D02*
Y23791D01*
X23262Y21734D02*
Y23817D01*
X21838Y16111D02*
Y18041D01*
X23362Y15984D02*
Y18067D01*
X19738Y21861D02*
Y23791D01*
X21262Y21734D02*
Y23817D01*
X12209Y15738D02*
X14139D01*
X12183Y17262D02*
X14266D01*
X6709Y13738D02*
X8639D01*
X6683Y15262D02*
X8766D01*
X29111D02*
X31041D01*
X28984Y13738D02*
X31067D01*
X34611Y17262D02*
X36541D01*
X34484Y15738D02*
X36567D01*
X6709Y15738D02*
X8639D01*
X6683Y17262D02*
X8766D01*
X12209Y13738D02*
X14139D01*
X12183Y15262D02*
X14266D01*
X29111Y17262D02*
X31041D01*
X28984Y15738D02*
X31067D01*
X34611Y15262D02*
X36541D01*
X34484Y13738D02*
X36567D01*
X16209Y4738D02*
X18139D01*
X16183Y6262D02*
X18266D01*
X24861D02*
X26791D01*
X24734Y4738D02*
X26817D01*
X15762Y7234D02*
Y9317D01*
X14238Y7361D02*
Y9291D01*
X25488Y7183D02*
Y9266D01*
X27012Y7209D02*
Y9139D01*
X19738Y8933D02*
Y11016D01*
X21262Y8959D02*
Y10889D01*
Y12459D02*
Y14389D01*
X19738Y12433D02*
Y14516D01*
X14238Y10861D02*
Y12791D01*
X15762Y10734D02*
Y12817D01*
X29012Y10709D02*
Y12639D01*
X27488Y10683D02*
Y12766D01*
X31937Y15810D02*
Y17741D01*
X33537Y15785D02*
Y17715D01*
X11287Y15785D02*
Y17715D01*
X9687Y15810D02*
Y17741D01*
X21687Y12560D02*
Y14491D01*
X23287Y12535D02*
Y14465D01*
X19285Y20787D02*
X21215D01*
X19259Y19187D02*
X21190D01*
X16187Y10810D02*
Y12741D01*
X17787Y10785D02*
Y12715D01*
X27037Y10785D02*
Y12715D01*
X25437Y10810D02*
Y12741D01*
X21687Y9060D02*
Y10991D01*
X23287Y9035D02*
Y10965D01*
X17787Y7285D02*
Y9215D01*
X16187Y7310D02*
Y9241D01*
X27437Y7310D02*
Y9241D01*
X29037Y7285D02*
Y9215D01*
X16395Y1984D02*
X16274Y1863D01*
Y1621D01*
X16395Y1500D01*
X16879D01*
X17000Y1621D01*
Y1863D01*
X16879Y1984D01*
X17000Y2226D02*
X16274D01*
X17000Y2710D01*
X16274D01*
X17000Y3314D02*
X16274D01*
X16637Y2952D01*
Y3435D01*
X13750Y8000D02*
X13024D01*
Y8363D01*
X13145Y8484D01*
X13387D01*
X13508Y8363D01*
Y8000D01*
Y8242D02*
X13750Y8484D01*
X13024Y9210D02*
Y8726D01*
X13387D01*
X13266Y8968D01*
Y9089D01*
X13387Y9210D01*
X13629D01*
X13750Y9089D01*
Y8847D01*
X13629Y8726D01*
X25250Y8000D02*
X24524D01*
Y8363D01*
X24645Y8484D01*
X24887D01*
X25008Y8363D01*
Y8000D01*
Y8242D02*
X25250Y8484D01*
X24524Y9210D02*
X24645Y8968D01*
X24887Y8726D01*
X25129D01*
X25250Y8847D01*
Y9089D01*
X25129Y9210D01*
X25008D01*
X24887Y9089D01*
Y8726D01*
X19500Y9750D02*
X18774D01*
Y10113D01*
X18895Y10234D01*
X19137D01*
X19258Y10113D01*
Y9750D01*
Y9992D02*
X19500Y10234D01*
Y10839D02*
X18774D01*
X19137Y10476D01*
Y10960D01*
X29274Y8000D02*
X30000D01*
Y8484D01*
X29879Y8726D02*
X30000Y8847D01*
Y9089D01*
X29879Y9210D01*
X29395D01*
X29274Y9089D01*
Y8847D01*
X29395Y8726D01*
X29516D01*
X29637Y8847D01*
Y9210D01*
X18024Y7750D02*
X18750D01*
Y8234D01*
X18145Y8476D02*
X18024Y8597D01*
Y8839D01*
X18145Y8960D01*
X18266D01*
X18387Y8839D01*
X18508Y8960D01*
X18629D01*
X18750Y8839D01*
Y8597D01*
X18629Y8476D01*
X18508D01*
X18387Y8597D01*
X18266Y8476D01*
X18145D01*
X18387Y8597D02*
Y8839D01*
X23524Y9500D02*
X24250D01*
Y9984D01*
X23524Y10226D02*
Y10710D01*
X23645D01*
X24129Y10226D01*
X24250D01*
X24524Y11000D02*
X25250D01*
Y11484D01*
X24524Y12210D02*
X24645Y11968D01*
X24887Y11726D01*
X25129D01*
X25250Y11847D01*
Y12089D01*
X25129Y12210D01*
X25008D01*
X24887Y12089D01*
Y11726D01*
X18024Y11250D02*
X18750D01*
Y11734D01*
X18024Y12460D02*
Y11976D01*
X18387D01*
X18266Y12218D01*
Y12339D01*
X18387Y12460D01*
X18629D01*
X18750Y12339D01*
Y12097D01*
X18629Y11976D01*
X23000Y20726D02*
Y20000D01*
X23484D01*
X23726D02*
X23968D01*
X23847D01*
Y20726D01*
X23726Y20605D01*
X26634Y29355D02*
X26513Y29476D01*
X26271D01*
X26150Y29355D01*
Y28871D01*
X26271Y28750D01*
X26513D01*
X26634Y28871D01*
X26876Y28750D02*
Y29476D01*
X27360Y28750D01*
Y29476D01*
X27602Y28750D02*
X27843D01*
X27722D01*
Y29476D01*
X27602Y29355D01*
X23524Y13000D02*
X24250D01*
Y13484D01*
Y14210D02*
Y13726D01*
X23766Y14210D01*
X23645D01*
X23524Y14089D01*
Y13847D01*
X23645Y13726D01*
X19484Y19105D02*
X19363Y19226D01*
X19121D01*
X19000Y19105D01*
Y18621D01*
X19121Y18500D01*
X19363D01*
X19484Y18621D01*
X20089Y18500D02*
Y19226D01*
X19726Y18863D01*
X20210D01*
X24384Y23105D02*
X24263Y23226D01*
X24021D01*
X23900Y23105D01*
Y22621D01*
X24021Y22500D01*
X24263D01*
X24384Y22621D01*
X24626Y23105D02*
X24747Y23226D01*
X24989D01*
X25110Y23105D01*
Y22984D01*
X24989Y22863D01*
X24868D01*
X24989D01*
X25110Y22742D01*
Y22621D01*
X24989Y22500D01*
X24747D01*
X24626Y22621D01*
X23734Y19355D02*
X23613Y19476D01*
X23371D01*
X23250Y19355D01*
Y18871D01*
X23371Y18750D01*
X23613D01*
X23734Y18871D01*
X24460Y18750D02*
X23976D01*
X24460Y19234D01*
Y19355D01*
X24339Y19476D01*
X24097D01*
X23976Y19355D01*
X18884Y23105D02*
X18763Y23226D01*
X18521D01*
X18400Y23105D01*
Y22621D01*
X18521Y22500D01*
X18763D01*
X18884Y22621D01*
X19126Y22500D02*
X19368D01*
X19247D01*
Y23226D01*
X19126Y23105D01*
X17750Y17226D02*
Y16500D01*
X18113D01*
X18234Y16621D01*
Y17105D01*
X18113Y17226D01*
X17750D01*
X18960Y16500D02*
X18476D01*
X18960Y16984D01*
Y17105D01*
X18839Y17226D01*
X18597D01*
X18476Y17105D01*
X19500Y13250D02*
X18774D01*
Y13613D01*
X18895Y13734D01*
X19137D01*
X19258Y13613D01*
Y13250D01*
Y13492D02*
X19500Y13734D01*
Y13976D02*
Y14218D01*
Y14097D01*
X18774D01*
X18895Y13976D01*
X12484Y18355D02*
X12363Y18476D01*
X12121D01*
X12000Y18355D01*
Y17871D01*
X12121Y17750D01*
X12363D01*
X12484Y17871D01*
X13210Y18476D02*
X12726D01*
Y18113D01*
X12968Y18234D01*
X13089D01*
X13210Y18113D01*
Y17871D01*
X13089Y17750D01*
X12847D01*
X12726Y17871D01*
X6984Y13105D02*
X6863Y13226D01*
X6621D01*
X6500Y13105D01*
Y12621D01*
X6621Y12500D01*
X6863D01*
X6984Y12621D01*
X7710Y13226D02*
X7468Y13105D01*
X7226Y12863D01*
Y12621D01*
X7347Y12500D01*
X7589D01*
X7710Y12621D01*
Y12742D01*
X7589Y12863D01*
X7226D01*
X30484Y13355D02*
X30363Y13476D01*
X30121D01*
X30000Y13355D01*
Y12871D01*
X30121Y12750D01*
X30363D01*
X30484Y12871D01*
X30726Y13476D02*
X31210D01*
Y13355D01*
X30726Y12871D01*
Y12750D01*
X34984Y18105D02*
X34863Y18226D01*
X34621D01*
X34500Y18105D01*
Y17621D01*
X34621Y17500D01*
X34863D01*
X34984Y17621D01*
X35226Y18105D02*
X35347Y18226D01*
X35589D01*
X35710Y18105D01*
Y17984D01*
X35589Y17863D01*
X35710Y17742D01*
Y17621D01*
X35589Y17500D01*
X35347D01*
X35226Y17621D01*
Y17742D01*
X35347Y17863D01*
X35226Y17984D01*
Y18105D01*
X35347Y17863D02*
X35589D01*
X6984Y18355D02*
X6863Y18476D01*
X6621D01*
X6500Y18355D01*
Y17871D01*
X6621Y17750D01*
X6863D01*
X6984Y17871D01*
X7226D02*
X7347Y17750D01*
X7589D01*
X7710Y17871D01*
Y18355D01*
X7589Y18476D01*
X7347D01*
X7226Y18355D01*
Y18234D01*
X7347Y18113D01*
X7710D01*
X12234Y13105D02*
X12113Y13226D01*
X11871D01*
X11750Y13105D01*
Y12621D01*
X11871Y12500D01*
X12113D01*
X12234Y12621D01*
X12476Y12500D02*
X12718D01*
X12597D01*
Y13226D01*
X12476Y13105D01*
X13081D02*
X13202Y13226D01*
X13443D01*
X13564Y13105D01*
Y12621D01*
X13443Y12500D01*
X13202D01*
X13081Y12621D01*
Y13105D01*
X30234Y18105D02*
X30113Y18226D01*
X29871D01*
X29750Y18105D01*
Y17621D01*
X29871Y17500D01*
X30113D01*
X30234Y17621D01*
X30476Y17500D02*
X30718D01*
X30597D01*
Y18226D01*
X30476Y18105D01*
X31081Y17500D02*
X31322D01*
X31202D01*
Y18226D01*
X31081Y18105D01*
X34484Y13105D02*
X34363Y13226D01*
X34121D01*
X34000Y13105D01*
Y12621D01*
X34121Y12500D01*
X34363D01*
X34484Y12621D01*
X34726Y12500D02*
X34968D01*
X34847D01*
Y13226D01*
X34726Y13105D01*
X35814Y12500D02*
X35331D01*
X35814Y12984D01*
Y13105D01*
X35693Y13226D01*
X35452D01*
X35331Y13105D01*
X18734Y7355D02*
X18613Y7476D01*
X18371D01*
X18250Y7355D01*
Y6871D01*
X18371Y6750D01*
X18613D01*
X18734Y6871D01*
X18976Y6750D02*
X19218D01*
X19097D01*
Y7476D01*
X18976Y7355D01*
X19581D02*
X19702Y7476D01*
X19943D01*
X20064Y7355D01*
Y7234D01*
X19943Y7113D01*
X19822D01*
X19943D01*
X20064Y6992D01*
Y6871D01*
X19943Y6750D01*
X19702D01*
X19581Y6871D01*
X24734Y7105D02*
X24613Y7226D01*
X24371D01*
X24250Y7105D01*
Y6621D01*
X24371Y6500D01*
X24613D01*
X24734Y6621D01*
X24976Y6500D02*
X25218D01*
X25097D01*
Y7226D01*
X24976Y7105D01*
X25943Y6500D02*
Y7226D01*
X25581Y6863D01*
X26064D01*
X1210Y20682D02*
X1089Y20803D01*
X847D01*
X726Y20682D01*
Y20199D01*
X847Y20078D01*
X1089D01*
X1210Y20199D01*
X1452Y20078D02*
Y20803D01*
X1936Y20078D01*
Y20803D01*
X2661Y20078D02*
X2178D01*
X2661Y20561D01*
Y20682D01*
X2540Y20803D01*
X2298D01*
X2178Y20682D01*
X41484Y20355D02*
X41363Y20476D01*
X41121D01*
X41000Y20355D01*
Y19871D01*
X41121Y19750D01*
X41363D01*
X41484Y19871D01*
X41726Y19750D02*
Y20476D01*
X42210Y19750D01*
Y20476D01*
X42452Y20355D02*
X42572Y20476D01*
X42814D01*
X42935Y20355D01*
Y20234D01*
X42814Y20113D01*
X42693D01*
X42814D01*
X42935Y19992D01*
Y19871D01*
X42814Y19750D01*
X42572D01*
X42452Y19871D01*
X24000Y17226D02*
Y16500D01*
X24363D01*
X24484Y16621D01*
Y17105D01*
X24363Y17226D01*
X24000D01*
X24726Y16500D02*
X24968D01*
X24847D01*
Y17226D01*
X24726Y17105D01*
X17000Y18476D02*
Y17750D01*
X17363D01*
X17484Y17871D01*
Y18355D01*
X17363Y18476D01*
X17000D01*
X17726Y18355D02*
X17847Y18476D01*
X18089D01*
X18210Y18355D01*
Y18234D01*
X18089Y18113D01*
X17968D01*
X18089D01*
X18210Y17992D01*
Y17871D01*
X18089Y17750D01*
X17847D01*
X17726Y17871D01*
X24750Y18726D02*
Y18000D01*
X25113D01*
X25234Y18121D01*
Y18605D01*
X25113Y18726D01*
X24750D01*
X25839Y18000D02*
Y18726D01*
X25476Y18363D01*
X25960D01*
X9750Y14476D02*
Y13750D01*
X10234D01*
X10476Y14355D02*
X10597Y14476D01*
X10839D01*
X10960Y14355D01*
Y14234D01*
X10839Y14113D01*
X10718D01*
X10839D01*
X10960Y13992D01*
Y13871D01*
X10839Y13750D01*
X10597D01*
X10476Y13871D01*
X32000Y14226D02*
Y13500D01*
X32484D01*
X33089D02*
Y14226D01*
X32726Y13863D01*
X33210D01*
X13750Y11000D02*
X13024D01*
Y11363D01*
X13145Y11484D01*
X13387D01*
X13508Y11363D01*
Y11000D01*
Y11242D02*
X13750Y11484D01*
Y12210D02*
Y11726D01*
X13266Y12210D01*
X13145D01*
X13024Y12089D01*
Y11847D01*
X13145Y11726D01*
X30000Y11000D02*
X29274D01*
Y11363D01*
X29395Y11484D01*
X29637D01*
X29758Y11363D01*
Y11000D01*
Y11242D02*
X30000Y11484D01*
X29395Y11726D02*
X29274Y11847D01*
Y12089D01*
X29395Y12210D01*
X29516D01*
X29637Y12089D01*
Y11968D01*
Y12089D01*
X29758Y12210D01*
X29879D01*
X30000Y12089D01*
Y11847D01*
X29879Y11726D01*
M02*
