M48
;Layer_Color=9474304
;FILE_FORMAT=4:3
METRIC,LZ
;TYPE=PLATED
T1F00S00C0.635
T2F00S00C0.700
%
T01
X002075Y00065
X002225
X001675Y00205
X00155Y00195
X001125Y001925
X000975
X000475Y0019
X000325
X000175
Y0012
X000325
X000475
X0018Y0026
Y00275
Y0029
X0025
Y00275
Y0026
X00265Y001925
X0028
X0032
X00335
X003875Y0019
X004025
X004175
Y0012
X004025
X003875
T02
X00215Y00025
X002404
X001896
M30
